<svg xmlns="http://www.w3.org/2000/svg" width="22.68" height="19.972" viewBox="0 0 22.68 19.972">
  <path id="Path_38" data-name="Path 38" d="M141.273,59.486s-1.81-1.331-.559-2.742a3.845,3.845,0,0,0,1.137-3.141s1.385,2.032.482,3.217A3.892,3.892,0,0,0,141.273,59.486Zm8.747-2.253c.9-1.184-.481-3.217-.481-3.217a3.854,3.854,0,0,1-1.138,3.14c-1.252,1.41.558,2.741.558,2.741A3.893,3.893,0,0,1,150.02,57.233Zm-3.679-.4c.965-1.329-.692-3.325-.692-3.325a4.116,4.116,0,0,1-1.219,3.36c-1.342,1.512.6,2.936.6,2.936A5.1,5.1,0,0,1,146.341,56.83ZM135.2,71.4c.194,1.271,1.948,2.081,4.068,2.081H153.4c2.119,0,3.874-.81,4.069-2.081Zm22.68-6.785a2.6,2.6,0,0,1-4.458,1.833,8.763,8.763,0,0,1-3.547,4.122H141.19c-2.608-1.444-4.447-4.312-4.736-8.383-.064-.921.08-1.129.717-1.173h8.138a8.693,8.693,0,0,1,1.015,2.864l-.9.162a.241.241,0,0,0-.194.28l.562,3.166a.239.239,0,0,0,.278.194l2.74-.491a.244.244,0,0,0,.194-.281l-.562-3.165a.239.239,0,0,0-.278-.194l-1.083.194a9.879,9.879,0,0,0-.895-2.73h7.558a.945.945,0,0,1,.738,1.12,2.549,2.549,0,0,1,.8-.138A2.611,2.611,0,0,1,157.879,64.611Zm-1.332,0a1.271,1.271,0,1,0-1.271,1.278A1.275,1.275,0,0,0,156.547,64.611Z" transform="translate(-135.199 -53.505)" fill="#acacab"/>
</svg>
