<svg xmlns="http://www.w3.org/2000/svg" width="24.601" height="16.714" viewBox="0 0 24.601 16.714">
  <path id="Path_40" data-name="Path 40" d="M355.814,318.659a2,2,0,0,1-1.176,1.814v9.574a.778.778,0,1,1-1.545,0v-9.622a1.99,1.99,0,0,1-1.087-1.764.6.6,0,0,0,0-.06v-3.5a.408.408,0,1,1,.816,0v3.5a.342.342,0,1,0,.678,0s0-3.476,0-3.477V315.1a.408.408,0,1,1,.815,0s0,3.5,0,3.507a.341.341,0,1,0,.677,0s0-3.476.006-3.476V315.1a.407.407,0,1,1,.815,0v3.562Zm18.006-1.614V322.1c0,.727.525,2.117,1.219,2.244v5.8a.781.781,0,1,0,1.552,0s.014-12.958.014-14.635C376.6,313.022,373.82,314.748,373.82,317.044Zm-9.427-.411a6.406,6.406,0,1,0,6.407,6.406,6.413,6.413,0,0,0-6.407-6.406Zm0-1.556a7.962,7.962,0,1,1-7.962,7.962,7.962,7.962,0,0,1,7.962-7.962Zm5,7.962a5,5,0,1,0-5,5A5.009,5.009,0,0,0,369.4,323.04Zm-.533,0a4.471,4.471,0,1,1-4.471-4.471A4.476,4.476,0,0,1,368.865,323.04Z" transform="translate(-352.003 -314.287)" fill="#acacab"/>
</svg>
