<svg xmlns="http://www.w3.org/2000/svg" width="24.601" height="13.789" viewBox="0 0 24.601 13.789">
  <path id="Path_39" data-name="Path 39" d="M302.087,242.253a6.531,6.531,0,0,0-5.056,2.063,9.939,9.939,0,0,0-2.981,6.917c-.172,2.334-1.667,3.617-3.055,3.617a2.554,2.554,0,0,1-2.3-2.359c-.01-.1.056-.126.1-.041a2.2,2.2,0,0,0,1.94,1.295,2.269,2.269,0,0,0,2.123-1.791c-.024,0-1.558-2.3-1.558-2.3a13.54,13.54,0,0,1,1.829-.306c.039-.226.082-.449.134-.668a15.09,15.09,0,0,0-3.445.658c-.423.122-.861.257-1.328.425-.112-.362-.169-.54-.283-.9a21.007,21.007,0,0,1,4.884-1.227l.493-.052c.11-.26.23-.51.354-.754a26.819,26.819,0,0,0-6.552,1.529c-.105-.367-.16-.552-.267-.915a27.658,27.658,0,0,1,7.378-1.611,10.2,10.2,0,0,1,3.839-3.75,7.465,7.465,0,0,0-1.506-.161,8.031,8.031,0,0,0-6.78,3.93,21.772,21.772,0,0,0-3.129.908.661.661,0,0,0-.369.354.794.794,0,0,0-.035.542c.106.353.157.531.26.884a.643.643,0,0,0,.6.491.585.585,0,0,0,.191-.033l.026-.009a.823.823,0,0,0,.015.114c.115.353.171.532.281.888-.263.119-.5.221-.681.308a.689.689,0,0,0-.343.4.785.785,0,0,0,.024.557c.144.332.215.5.353.836a.5.5,0,0,0,.638.4,3.433,3.433,0,0,0,3.063,3.217h17.189c1.591,0,2.953-.012,2.953-3.348C311.088,246.789,306.916,242.316,302.087,242.253Zm-10.47,8.966.5.777c-.586.192-1.194.42-1.864.715-.135-.354-.2-.529-.346-.88a9.775,9.775,0,0,1,1.273-.5C291.327,251.293,291.471,251.254,291.617,251.219Zm-3.8.582c-.139-.341-.212-.51-.358-.847a15.866,15.866,0,0,1,1.516-.613c.591-.2,1.165-.373,1.734-.516l.5.763A19.742,19.742,0,0,0,287.82,251.8Zm20.718.13a.514.514,0,0,1-.492-.533,6.2,6.2,0,0,0-1.624-4.248,5.327,5.327,0,0,0-3.941-1.767.532.532,0,0,1,0-1.06,6.273,6.273,0,0,1,4.64,2.077,7.315,7.315,0,0,1,1.912,5A.515.515,0,0,1,308.538,251.931Z" transform="translate(-286.487 -241.924)" fill="#acacab"/>
</svg>
