<svg xmlns="http://www.w3.org/2000/svg" xmlns:xlink="http://www.w3.org/1999/xlink" width="45" height="45" viewBox="0 0 45 45">
  <defs>
    <clipPath id="clip-path">
      <circle id="Ellipse_5" data-name="Ellipse 5" cx="22.5" cy="22.5" r="22.5" transform="translate(1702 16)" fill="#dfdddf"/>
    </clipPath>
  </defs>
  <g id="Group_4" data-name="Group 4" transform="translate(-1702 -16)">
    <circle id="Ellipse_1" data-name="Ellipse 1" cx="22.5" cy="22.5" r="22.5" transform="translate(1702 16)" fill="#dfdddf"/>
    <g id="Mask_Group_3" data-name="Mask Group 3" clip-path="url(#clip-path)">
      <g id="user-fill" transform="translate(1710 31)">
        <path id="Path_4" data-name="Path 4" d="M0,0H30V30H0Z" fill="none"/>
        <path id="Path_5" data-name="Path 5" d="M3.961,27.617A10.353,10.353,0,0,1,14,17.25a10,10,0,0,1,10,10s-5.168,3.075-10.168,3.075A23.421,23.421,0,0,1,3.961,27.617ZM14,16a7.5,7.5,0,1,1,7.5-7.5A7.5,7.5,0,0,1,14,16Z" transform="translate(1 0.25)" fill="#fff"/>
      </g>
    </g>
  </g>
</svg>
